<svg width="88" height="27" viewBox="0 0 88 27" fill="none" xmlns="http://www.w3.org/2000/svg">
<g clip-path="url(#clip0_71_159)">
<path d="M13.5683 0C15.2244 0.000579907 17.2772 2.83053 17.2772 6.90527C17.2772 7.32605 17.2529 7.7437 17.2118 8.1543C20.5985 6.41404 23.8799 7.32458 24.4882 8.37695C25.1203 9.47191 23.7241 13.1975 20.1962 15.2344C20.0136 15.3398 19.8278 15.4368 19.6415 15.5293C19.6489 15.5336 19.6566 15.5377 19.664 15.542C23.1918 17.5788 23.9748 20.5616 23.5048 21.376C23.034 22.1899 19.6006 22.0375 16.0731 20.001C15.5651 19.7077 15.0837 19.3897 14.6317 19.0605C14.6494 19.4676 14.6591 19.8881 14.6591 20.3184C14.6591 23.939 14.0039 26.8747 13.1962 26.875C12.3887 26.874 11.7343 23.9385 11.7343 20.3184C11.7343 19.9889 11.7414 19.6651 11.7519 19.3486C11.1652 19.9177 10.4938 20.4395 9.7411 20.874C5.92389 23.0778 1.49203 22.2473 0.425674 20.4004C-0.640411 18.5534 0.202569 14.6238 4.01942 12.4199C4.24989 12.2869 4.48611 12.1625 4.72645 12.0479C1.6765 9.92711 0.318362 7.28519 1.10829 5.91699C1.93328 4.48853 6.20452 4.35936 9.88075 6.16602C10.1096 2.49184 12.0141 -1.35865e-07 13.5683 0ZM13.4745 12.3945C13.3239 12.1782 13.004 12.1782 12.8534 12.3945L12.2567 13.251C12.2326 13.2856 12.2029 13.316 12.1688 13.3408L11.3153 13.9619C11.1076 14.1131 11.1075 14.423 11.3153 14.5742L12.1688 15.1953C12.2028 15.2201 12.2327 15.2506 12.2567 15.2852L12.8534 16.1416C13.0041 16.3576 13.3239 16.3577 13.4745 16.1416L14.0712 15.2852C14.0953 15.2506 14.125 15.2201 14.1591 15.1953L15.0126 14.5742C15.2203 14.4231 15.2202 14.1132 15.0126 13.9619L14.1591 13.3408C14.125 13.316 14.0953 13.2856 14.0712 13.251L13.4745 12.3945Z" fill="black"/>
<path d="M34.1534 19.8034C32.8775 19.8034 31.7867 19.4972 30.8809 18.8848C29.9751 18.2724 29.2797 17.4367 28.7949 16.3778C28.3229 15.3061 28.0869 14.0877 28.0869 12.7226C28.0869 11.3575 28.3293 10.1391 28.8141 9.06735C29.2989 7.99567 29.9942 7.15363 30.9 6.54124C31.8186 5.91609 32.9158 5.60352 34.1916 5.60352C35.2761 5.60352 36.1883 5.80127 36.9283 6.19677C37.681 6.59227 38.2742 7.12812 38.708 7.8043C39.1546 8.48048 39.4607 9.23959 39.6266 10.0817L37.9043 10.1965C37.7384 9.31614 37.3684 8.60168 36.7943 8.05308C36.2202 7.49172 35.3526 7.21104 34.1916 7.21104C33.1582 7.21104 32.3162 7.46621 31.6655 7.97653C31.0276 8.48686 30.5556 9.16304 30.2494 10.0051C29.9559 10.8344 29.8092 11.7402 29.8092 12.7226C29.8092 13.756 29.9623 14.6873 30.2685 15.5166C30.5747 16.3331 31.0531 16.9838 31.7038 17.4686C32.3545 17.9534 33.1837 18.1958 34.1916 18.1958C34.9954 18.1958 35.6907 18.0172 36.2776 17.66C36.8645 17.29 37.3174 16.7988 37.6363 16.1864C37.9553 15.574 38.1211 14.9106 38.1339 14.1962H34.2299V12.6269H39.6649V19.4972H38.4401L38.3253 16.3587L38.5549 16.6266C38.4018 17.239 38.1084 17.7876 37.6746 18.2724C37.2408 18.7444 36.7177 19.1208 36.1054 19.4015C35.5057 19.6694 34.8551 19.8034 34.1534 19.8034ZM44.011 19.7268C42.9648 19.7268 42.1291 19.4844 41.504 18.9996C40.8916 18.5148 40.5854 17.8386 40.5854 16.9711C40.5854 16.1035 40.8406 15.4209 41.3509 14.9234C41.8612 14.4258 42.6714 14.075 43.7813 13.8708L47.3791 13.201C47.3791 12.3462 47.175 11.7083 46.7667 11.2873C46.3712 10.8663 45.7716 10.6558 44.9678 10.6558C44.2661 10.6558 43.7112 10.8153 43.3029 11.1342C42.8946 11.4404 42.614 11.8869 42.4609 12.4738L40.7576 12.3398C40.949 11.383 41.4083 10.6111 42.1355 10.0242C42.8755 9.42458 43.8196 9.12477 44.9678 9.12477C46.2692 9.12477 47.2643 9.49475 47.9532 10.2348C48.6422 10.962 48.9866 11.9699 48.9866 13.2584V17.4495C48.9866 17.6791 49.0249 17.845 49.1015 17.9471C49.1908 18.0364 49.3311 18.081 49.5225 18.081H49.9244V19.4972C49.8733 19.5099 49.7904 19.5163 49.6756 19.5163C49.5608 19.5291 49.4396 19.5354 49.312 19.5354C48.8527 19.5354 48.4763 19.4653 48.1829 19.3249C47.9022 19.1718 47.6981 18.9422 47.5705 18.636C47.4429 18.317 47.3791 17.9024 47.3791 17.3921L47.5705 17.4304C47.4812 17.8641 47.2643 18.2596 46.9198 18.6169C46.5754 18.9613 46.148 19.2356 45.6376 19.4398C45.1273 19.6311 44.5851 19.7268 44.011 19.7268ZM44.1641 18.3107C44.8403 18.3107 45.4144 18.1831 45.8864 17.9279C46.3712 17.66 46.7412 17.3028 46.9964 16.8562C47.2515 16.3969 47.3791 15.8866 47.3791 15.3253V14.598L44.0875 15.2104C43.3986 15.338 42.9201 15.5358 42.6522 15.8037C42.3971 16.0588 42.2695 16.3969 42.2695 16.818C42.2695 17.29 42.4353 17.66 42.7671 17.9279C43.1115 18.1831 43.5772 18.3107 44.1641 18.3107ZM50.7832 19.4972V9.35441H52.1993L52.2759 11.9188L52.1228 11.8614C52.2503 10.9939 52.5246 10.3623 52.9457 9.9668C53.3794 9.55854 53.9536 9.35441 54.668 9.35441H55.6631V10.8854H54.6871C54.1768 10.8854 53.7494 10.9811 53.405 11.1725C53.0732 11.3511 52.8181 11.6254 52.6395 11.9954C52.4736 12.3526 52.3907 12.8119 52.3907 13.3733V19.4972H50.7832ZM59.9091 19.7268C59.0288 19.7268 58.2633 19.5099 57.6126 19.0762C56.9747 18.6424 56.4835 18.03 56.139 17.239C55.7946 16.448 55.6223 15.5102 55.6223 14.4258C55.6223 13.3414 55.7946 12.4036 56.139 11.6126C56.4835 10.8216 56.9747 10.2092 57.6126 9.77543C58.2633 9.34165 59.0288 9.12477 59.9091 9.12477C60.5853 9.12477 61.204 9.27148 61.7654 9.56492C62.3267 9.8456 62.7478 10.2475 63.0284 10.7706V5.90971H64.636V19.4972H63.1815L63.1241 17.9662C62.8434 18.5148 62.416 18.9486 61.8419 19.2675C61.2678 19.5737 60.6235 19.7268 59.9091 19.7268ZM60.2344 18.1958C60.834 18.1958 61.338 18.0427 61.7462 17.7365C62.1673 17.4304 62.4862 16.9966 62.7031 16.4352C62.92 15.8611 63.0284 15.1913 63.0284 14.4258C63.0284 13.6348 62.92 12.9586 62.7031 12.3973C62.4862 11.8359 62.1673 11.4085 61.7462 11.1151C61.338 10.8089 60.834 10.6558 60.2344 10.6558C59.3413 10.6558 58.6269 10.9939 58.091 11.67C57.5679 12.3335 57.3064 13.2521 57.3064 14.4258C57.3064 15.5868 57.5679 16.5054 58.091 17.1816C58.6269 17.8577 59.3413 18.1958 60.2344 18.1958ZM70.5103 19.7268C69.5535 19.7268 68.7242 19.5099 68.0225 19.0762C67.3336 18.6424 66.7977 18.03 66.415 17.239C66.045 16.4352 65.86 15.4975 65.86 14.4258C65.86 13.3541 66.045 12.4228 66.415 11.6318C66.7977 10.8408 67.3272 10.2284 68.0034 9.79457C68.6923 9.34803 69.5024 9.12477 70.4338 9.12477C71.3141 9.12477 72.0924 9.33528 72.7685 9.7563C73.4447 10.1646 73.9678 10.7642 74.3378 11.5552C74.7205 12.3462 74.9119 13.3095 74.9119 14.4449V14.9234H67.5441C67.6079 16.0078 67.8949 16.8243 68.4052 17.3729C68.9283 17.9215 69.63 18.1958 70.5103 18.1958C71.1738 18.1958 71.716 18.0427 72.137 17.7365C72.5708 17.4176 72.8706 17.003 73.0365 16.4926L74.7588 16.6266C74.4909 17.5324 73.9806 18.2788 73.2278 18.8656C72.4879 19.4398 71.582 19.7268 70.5103 19.7268ZM67.5441 13.5072H73.1513C73.0747 12.5248 72.7877 11.804 72.2901 11.3447C71.8053 10.8854 71.1865 10.6558 70.4338 10.6558C69.6555 10.6558 69.0113 10.8982 68.5009 11.383C68.0034 11.855 67.6844 12.5631 67.5441 13.5072ZM76.1325 19.4972V9.35441H77.6061L77.6635 11.938L77.4721 11.7657C77.5997 11.1661 77.823 10.6749 78.1419 10.2922C78.4609 9.89663 78.8436 9.6032 79.2901 9.41182C79.7494 9.22045 80.2406 9.12477 80.7637 9.12477C81.542 9.12477 82.1799 9.297 82.6774 9.64147C83.1878 9.98594 83.5641 10.4516 83.8065 11.0385C84.0617 11.6126 84.1893 12.2569 84.1893 12.9714V19.4972H82.5817V13.4307C82.5817 12.8055 82.5052 12.2824 82.3521 11.8614C82.2118 11.4276 81.9821 11.1023 81.6632 10.8854C81.3442 10.6558 80.9296 10.541 80.4192 10.541C79.641 10.541 78.9967 10.7897 78.4864 11.2873C77.9888 11.7721 77.74 12.4866 77.74 13.4307V19.4972H76.1325Z" fill="black"/>
<path d="M84.9856 8.64513V7.04678H85.7956C85.8606 7.04678 85.9313 7.06555 86.0078 7.10309C86.0844 7.13918 86.1493 7.19549 86.2028 7.27202C86.2576 7.3471 86.2851 7.4424 86.2851 7.5579C86.2851 7.67486 86.2569 7.77448 86.2006 7.85678C86.1443 7.93764 86.0757 7.999 85.9948 8.04088C85.9154 8.08275 85.8404 8.10368 85.7696 8.10368H85.1848V7.84379H85.6613C85.709 7.84379 85.7602 7.81996 85.8151 7.77232C85.8714 7.72467 85.8996 7.6532 85.8996 7.5579C85.8996 7.45972 85.8714 7.3933 85.8151 7.35865C85.7602 7.324 85.7118 7.30667 85.67 7.30667H85.3364V8.64513H84.9856ZM85.9515 7.89144L86.35 8.64513H85.9645L85.5747 7.89144H85.9515ZM85.592 9.59808C85.3523 9.59808 85.1278 9.55332 84.9184 9.4638C84.7091 9.37428 84.525 9.25011 84.3662 9.09129C84.2073 8.93246 84.0832 8.74837 83.9937 8.53901C83.9041 8.32965 83.8594 8.10513 83.8594 7.86545C83.8594 7.62577 83.9041 7.40124 83.9937 7.19188C84.0832 6.98253 84.2073 6.79843 84.3662 6.63961C84.525 6.48078 84.7091 6.35661 84.9184 6.26709C85.1278 6.17757 85.3523 6.13281 85.592 6.13281C85.8317 6.13281 86.0562 6.17757 86.2656 6.26709C86.4749 6.35661 86.659 6.48078 86.8178 6.63961C86.9767 6.79843 87.1008 6.98253 87.1904 7.19188C87.2799 7.40124 87.3246 7.62577 87.3246 7.86545C87.3246 8.10513 87.2799 8.32965 87.1904 8.53901C87.1008 8.74837 86.9767 8.93246 86.8178 9.09129C86.659 9.25011 86.4749 9.37428 86.2656 9.4638C86.0562 9.55332 85.8317 9.59808 85.592 9.59808ZM85.592 9.18225C85.8346 9.18225 86.0555 9.12305 86.2547 9.00465C86.454 8.88626 86.6128 8.72743 86.7312 8.52818C86.8496 8.32893 86.9088 8.10802 86.9088 7.86545C86.9088 7.62288 86.8496 7.40197 86.7312 7.20271C86.6128 7.00346 86.454 6.84464 86.2547 6.72624C86.0555 6.60784 85.8346 6.54864 85.592 6.54864C85.3494 6.54864 85.1285 6.60784 84.9293 6.72624C84.73 6.84464 84.5712 7.00346 84.4528 7.20271C84.3344 7.40197 84.2752 7.62288 84.2752 7.86545C84.2752 8.10802 84.3344 8.32893 84.4528 8.52818C84.5712 8.72743 84.73 8.88626 84.9293 9.00465C85.1285 9.12305 85.3494 9.18225 85.592 9.18225Z" fill="black"/>
</g>
<defs>
<clipPath id="clip0_71_159">
<rect width="88" height="27" fill="white"/>
</clipPath>
</defs>
</svg>
